<?xml version="1.0" encoding="UTF-8"?>
<svg id="Layer_1" data-name="Layer 1" xmlns="http://www.w3.org/2000/svg" xmlns:xlink="http://www.w3.org/1999/xlink" viewBox="0 0 2048 640">
  <defs>
    <style>
      .cls-1 {
        fill: none;
      }

      .cls-2 {
        fill: #1f91dd;
      }

      .cls-3 {
        fill: #365270;
      }

      .cls-4 {
        fill: #a3e5ff;
      }

      .cls-5 {
        fill: #2eb6ff;
      }

      .cls-6 {
        fill: #26384c;
      }

      .cls-7 {
        clip-path: url(#clippath);
      }
    </style>
    <clipPath id="clippath">
      <path class="cls-1" d="M550.99,320.03c0,84.7-68.69,153.37-153.45,153.37-53.16,0-100.01-27.05-127.52-68.15l81.96-105.39,67.16,78.04,111.86-133.51c12.76,22.3,19.99,48.11,19.99,75.65Z"/>
    </clipPath>
  </defs>
  <g>
    <path class="cls-6" d="M790.28,416.55h-42.66l-71.35-108.02v108.02h-42.66v-175.13h42.66l71.35,108.52v-108.52h42.66v175.13Z"/>
    <path class="cls-6" d="M824.33,256.27c-4.74-4.4-7.11-9.85-7.11-16.34s2.37-12.18,7.11-16.59c4.74-4.4,10.85-6.61,18.34-6.61s13.35,2.21,18.09,6.61c4.74,4.41,7.11,9.94,7.11,16.59s-2.37,11.93-7.11,16.34c-4.74,4.41-10.77,6.61-18.09,6.61s-13.6-2.2-18.34-6.61ZM863.88,277.35v139.2h-42.66v-139.2h42.66Z"/>
    <path class="cls-6" d="M1113.72,291.57c10.23,10.48,15.34,25.03,15.34,43.66v81.33h-42.41v-75.59c0-8.98-2.37-15.92-7.11-20.83-4.74-4.9-11.27-7.36-19.58-7.36s-14.85,2.46-19.59,7.36c-4.74,4.91-7.11,11.85-7.11,20.83v75.59h-42.41v-75.59c0-8.98-2.37-15.92-7.11-20.83-4.74-4.9-11.27-7.36-19.59-7.36s-14.84,2.46-19.58,7.36c-4.74,4.91-7.11,11.85-7.11,20.83v75.59h-42.66v-139.2h42.66v17.46c4.32-5.82,9.98-10.43,16.96-13.85,6.99-3.41,14.88-5.11,23.7-5.11,10.48,0,19.83,2.25,28.06,6.74s14.67,10.89,19.33,19.21c4.82-7.65,11.39-13.88,19.71-18.71,8.31-4.82,17.38-7.23,27.19-7.23,17.29,0,31.06,5.24,41.29,15.72Z"/>
    <path class="cls-6" d="M1236.58,380.38v36.17h-21.7c-15.47,0-27.53-3.78-36.17-11.35-8.65-7.57-12.97-19.91-12.97-37.05v-55.38h-16.96v-35.42h16.96v-33.93h42.66v33.93h27.94v35.42h-27.94v55.88c0,4.16,1,7.15,2.99,8.98,2,1.83,5.32,2.74,9.98,2.74h15.22Z"/>
    <path class="cls-6" d="M1259.9,309.03c5.4-10.81,12.76-19.12,22.08-24.95,9.31-5.82,19.71-8.73,31.18-8.73,9.81,0,18.42,2,25.82,5.99,7.4,3.99,13.09,9.23,17.09,15.72v-19.71h42.66v139.2h-42.66v-19.71c-4.16,6.49-9.94,11.72-17.34,15.72s-16.01,5.99-25.82,5.99c-11.31,0-21.62-2.95-30.93-8.86-9.32-5.9-16.67-14.3-22.08-25.2-5.41-10.89-8.11-23.49-8.11-37.79s2.7-26.86,8.11-37.67ZM1347.21,321.76c-5.91-6.15-13.1-9.23-21.58-9.23s-15.68,3.04-21.58,9.11c-5.91,6.07-8.86,14.43-8.86,25.07s2.95,19.09,8.86,25.32c5.9,6.24,13.1,9.35,21.58,9.35s15.67-3.07,21.58-9.23c5.9-6.15,8.86-14.55,8.86-25.2s-2.95-19.04-8.86-25.2Z"/>
    <path class="cls-6" d="M1489.53,281.34c7.48-3.99,16.05-5.99,25.69-5.99,11.48,0,21.87,2.91,31.18,8.73,9.31,5.82,16.67,14.14,22.08,24.95,5.4,10.81,8.11,23.37,8.11,37.67s-2.7,26.9-8.11,37.79c-5.41,10.89-12.77,19.29-22.08,25.2-9.31,5.91-19.71,8.86-31.18,8.86-9.81,0-18.38-1.96-25.69-5.86-7.32-3.9-13.06-9.11-17.21-15.59v19.46h-42.66v-184.61h42.66v65.11c3.99-6.49,9.73-11.72,17.21-15.72ZM1524.33,321.63c-5.91-6.07-13.18-9.11-21.83-9.11s-15.68,3.08-21.58,9.23c-5.91,6.15-8.86,14.56-8.86,25.2s2.95,19.05,8.86,25.2c5.9,6.16,13.1,9.23,21.58,9.23s15.72-3.12,21.7-9.35c5.99-6.24,8.98-14.68,8.98-25.32s-2.95-19-8.86-25.07Z"/>
    <path class="cls-6" d="M1641.7,231.95v184.61h-42.66v-184.61h42.66Z"/>
    <path class="cls-6" d="M1803.1,357.18h-96.54c.66,8.65,3.45,15.26,8.36,19.83,4.9,4.58,10.93,6.86,18.09,6.86,10.64,0,18.04-4.49,22.2-13.47h45.4c-2.33,9.15-6.53,17.38-12.6,24.7-6.07,7.32-13.68,13.06-22.83,17.21-9.15,4.16-19.38,6.24-30.69,6.24-13.64,0-25.78-2.91-36.42-8.73-10.64-5.82-18.96-14.13-24.95-24.95-5.99-10.81-8.98-23.45-8.98-37.92s2.95-27.11,8.85-37.92c5.9-10.81,14.18-19.12,24.82-24.95,10.64-5.82,22.86-8.73,36.67-8.73s25.45,2.83,35.92,8.48c10.48,5.66,18.67,13.72,24.57,24.2,5.9,10.48,8.86,22.7,8.86,36.67,0,3.99-.25,8.15-.75,12.47ZM1760.2,333.48c0-7.32-2.5-13.14-7.49-17.46-4.99-4.32-11.22-6.49-18.71-6.49s-13.18,2.08-18.09,6.24c-4.91,4.16-7.94,10.07-9.11,17.71h53.39Z"/>
  </g>
  <g>
    <path class="cls-3" d="M516.87,223.62l-97.96,116.9-67.86-78.84-93.74,120.55c-8.46-19.03-13.15-40.04-13.15-62.19,0-84.78,68.69-153.44,153.41-153.44,48.24,0,91.22,22.23,119.3,57.02Z"/>
    <g>
      <path class="cls-4" d="M551,320.04c0,84.69-68.69,153.35-153.44,153.35-53.17,0-100.04-27.04-127.53-68.16l81.96-105.38,67.15,78.04,111.85-133.49c12.76,22.29,20.01,48.09,20.01,75.64Z"/>
      <g class="cls-7">
        <path class="cls-5" d="M231.38,412.62l114.87-147.7,39.98,241.88s-102.37-7.83-154.85-94.18Z"/>
        <path class="cls-5" d="M457.43,501.39l73.58-257,119.63,197.28s-140.73,146.06-193.21,59.72Z"/>
        <polygon class="cls-2" points="419.15 377.8 419.15 480.3 470.75 463.27 531.01 244.29 419.15 377.8"/>
      </g>
    </g>
  </g>
</svg>