<svg xmlns="http://www.w3.org/2000/svg" width="21" height="21" fill="none" viewBox="0 0 21 21"><path fill="#365270" d="m18.667 3.903-6.706 8.002-4.645-5.397L.9 14.76c-.579-1.303-.9-2.741-.9-4.257C0 4.7 4.702 0 10.5 0c3.303 0 6.245 1.522 8.167 3.903"/><path fill="#a3e5ff" d="M21.003 10.503c0 5.796-4.702 10.496-10.503 10.496-3.64 0-6.848-1.85-8.73-4.665L7.38 9.12l4.597 5.341 7.656-9.137a10.4 10.4 0 0 1 1.37 5.178"/><mask id="a" width="21" height="16" x="1" y="5" maskUnits="userSpaceOnUse" style="mask-type:luminance"><path fill="#fff" d="M21.002 10.502C21.002 16.3 16.3 21 10.499 21a10.49 10.49 0 0 1-8.729-4.665l5.61-7.214 4.597 5.342 7.657-9.138a10.4 10.4 0 0 1 1.368 5.178z"/></mask><g mask="url(#a)"><path fill="#2eb6ff" d="M-.875 16.84 6.988 6.73l2.736 16.556S2.717 22.75-.875 16.84M14.598 22.916l5.036-17.591 8.189 13.503s-9.633 9.998-13.225 4.088"/><path fill="#1f91dd" d="M11.978 14.456v7.016l3.532-1.165 4.124-14.99z"/></g></svg>