<svg xmlns="http://www.w3.org/2000/svg" width="50" height="50" fill="none" viewBox="0 0 50 50"><path fill="#eefcff" d="M44.44 9.293 28.477 28.348 17.418 15.5 2.53 34.636l-.391.504A24.85 24.85 0 0 1 0 25.006c0-.219.005-.43.01-.644v-.03C.368 10.828 11.422 0 24.994 0 32.546 0 39.3 3.337 43.88 8.62c.19.224.378.445.56.673"/><path fill="#a3e5ff" d="M49.997 25.006C49.997 38.81 38.803 50 24.993 50 16.328 50 8.695 45.589 4.21 38.893l.498-.639 12.858-16.533 10.947 12.717L46.741 12.68a24.65 24.65 0 0 1 3.246 11.667c.005.219.01.435.01.659"/><mask id="a" width="46" height="38" x="4" y="12" maskUnits="userSpaceOnUse" style="mask-type:luminance"><path fill="#fff" d="M50 25.006c0 13.802-11.193 24.992-25.006 24.992-8.663 0-16.299-4.408-20.78-11.105L17.57 21.719l10.944 12.717L46.743 12.68A24.73 24.73 0 0 1 50 25.007z"/></mask><g mask="url(#a)"><path fill="#2eb6ff" d="m-2.084 40.092 18.719-24.068L23.15 55.44S6.468 54.164-2.084 40.092M34.752 54.558l11.99-41.88 19.495 32.148s-22.933 23.802-31.485 9.732"/><path fill="#1f91dd" d="M28.514 34.418v16.703l8.409-2.773 9.82-35.686z"/></g></svg>