<?xml version="1.0" encoding="UTF-8"?>
<svg id="Layer_1" data-name="Layer 1" xmlns="http://www.w3.org/2000/svg" xmlns:xlink="http://www.w3.org/1999/xlink" viewBox="0 0 2048 2048">
  <defs>
    <style>
      .cls-1 {
        fill: none;
      }

      .cls-2 {
        fill: #1f91dd;
      }

      .cls-3 {
        fill: #365270;
      }

      .cls-4 {
        fill: #a3e5ff;
      }

      .cls-5 {
        fill: #2eb6ff;
      }

      .cls-6 {
        fill: #26384c;
      }

      .cls-7 {
        clip-path: url(#clippath);
      }
    </style>
    <clipPath id="clippath">
      <path class="cls-1" d="M1414.14,822.51c0,221.85-179.92,401.7-401.91,401.7-139.25,0-261.96-70.86-334.01-178.51l214.68-276.03,175.91,204.4,292.99-349.7c33.42,58.4,52.35,126.02,52.35,198.14Z"/>
    </clipPath>
  </defs>
  <g>
    <path class="cls-6" d="M472.22,1564.81h-54.94l-91.89-139.11v139.11h-54.94v-225.54h54.94l91.89,139.76v-139.76h54.94v225.54Z"/>
    <path class="cls-6" d="M516.07,1358.39c-6.1-5.67-9.16-12.69-9.16-21.04s3.05-15.69,9.16-21.36c6.1-5.67,13.97-8.51,23.61-8.51s17.19,2.84,23.29,8.51c6.1,5.68,9.15,12.8,9.15,21.36s-3.05,15.37-9.15,21.04c-6.1,5.68-13.87,8.51-23.29,8.51s-17.51-2.84-23.61-8.51ZM567,1385.54v179.27h-54.94v-179.27h54.94Z"/>
    <path class="cls-6" d="M888.75,1403.85c13.17,13.49,19.76,32.24,19.76,56.22v104.74h-54.62v-97.35c0-11.57-3.05-20.51-9.16-26.83-6.1-6.32-14.51-9.48-25.22-9.48s-19.12,3.16-25.22,9.48c-6.1,6.32-9.15,15.26-9.15,26.83v97.35h-54.62v-97.35c0-11.57-3.05-20.51-9.15-26.83-6.1-6.32-14.51-9.48-25.22-9.48s-19.11,3.16-25.22,9.48c-6.1,6.32-9.15,15.26-9.15,26.83v97.35h-54.94v-179.27h54.94v22.49c5.57-7.49,12.85-13.44,21.84-17.83,9-4.39,19.17-6.59,30.52-6.59,13.49,0,25.54,2.89,36.14,8.67,10.6,5.78,18.9,14.03,24.9,24.74,6.21-9.85,14.67-17.88,25.38-24.1,10.71-6.21,22.38-9.32,35.02-9.32,22.27,0,40,6.75,53.17,20.24Z"/>
    <path class="cls-6" d="M1046.98,1518.23v46.59h-27.95c-19.92,0-35.45-4.87-46.59-14.62-11.14-9.74-16.71-25.65-16.71-47.71v-71.32h-21.85v-45.62h21.85v-43.69h54.94v43.69h35.98v45.62h-35.98v71.97c0,5.36,1.28,9.21,3.85,11.57,2.57,2.36,6.85,3.53,12.85,3.53h19.6Z"/>
    <path class="cls-6" d="M1077.01,1426.34c6.96-13.92,16.43-24.63,28.43-32.13,11.99-7.49,25.38-11.24,40.16-11.24,12.63,0,23.72,2.57,33.25,7.71,9.53,5.14,16.86,11.89,22,20.24v-25.38h54.94v179.27h-54.94v-25.38c-5.35,8.35-12.8,15.1-22.33,20.24-9.53,5.14-20.62,7.71-33.25,7.71-14.57,0-27.85-3.8-39.84-11.41-12-7.6-21.47-18.42-28.43-32.45-6.96-14.03-10.44-30.25-10.44-48.67s3.48-34.59,10.44-48.51ZM1189.46,1442.73c-7.6-7.92-16.87-11.89-27.79-11.89s-20.19,3.91-27.79,11.73c-7.6,7.82-11.41,18.58-11.41,32.29s3.8,24.58,11.41,32.61c7.6,8.03,16.87,12.05,27.79,12.05s20.18-3.96,27.79-11.89c7.6-7.92,11.41-18.74,11.41-32.45s-3.8-24.52-11.41-32.45Z"/>
    <path class="cls-6" d="M1372.74,1390.68c9.64-5.14,20.66-7.71,33.09-7.71,14.78,0,28.16,3.75,40.16,11.24,11.99,7.5,21.47,18.21,28.43,32.13,6.96,13.92,10.44,30.09,10.44,48.51s-3.48,34.65-10.44,48.67c-6.96,14.03-16.44,24.85-28.43,32.45-12,7.6-25.38,11.41-40.16,11.41-12.64,0-23.67-2.52-33.09-7.55-9.43-5.03-16.82-11.73-22.17-20.08v25.06h-54.94v-237.75h54.94v83.85c5.14-8.35,12.53-15.1,22.17-20.24ZM1417.56,1442.57c-7.6-7.82-16.98-11.73-28.11-11.73s-20.19,3.97-27.79,11.89c-7.6,7.93-11.41,18.75-11.41,32.45s3.8,24.53,11.41,32.45c7.6,7.93,16.87,11.89,27.79,11.89s20.24-4.02,27.95-12.05c7.71-8.03,11.57-18.9,11.57-32.61s-3.8-24.47-11.41-32.29Z"/>
    <path class="cls-6" d="M1568.72,1327.07v237.75h-54.94v-237.75h54.94Z"/>
    <path class="cls-6" d="M1776.58,1488.35h-124.33c.85,11.14,4.44,19.65,10.76,25.54,6.31,5.89,14.08,8.84,23.29,8.84,13.71,0,23.24-5.78,28.59-17.35h58.47c-3,11.78-8.41,22.38-16.23,31.81-7.82,9.43-17.62,16.82-29.4,22.17-11.78,5.36-24.95,8.03-39.52,8.03-17.57,0-33.2-3.74-46.91-11.24-13.71-7.49-24.42-18.2-32.13-32.13-7.71-13.92-11.57-30.2-11.57-48.83s3.8-34.91,11.4-48.83c7.6-13.92,18.26-24.63,31.97-32.13,13.71-7.49,29.45-11.24,47.23-11.24s32.77,3.64,46.26,10.92c13.49,7.28,24.04,17.67,31.64,31.16,7.6,13.49,11.41,29.24,11.41,47.23,0,5.14-.32,10.5-.96,16.06ZM1721.32,1457.83c0-9.42-3.21-16.92-9.64-22.49-6.43-5.57-14.46-8.35-24.1-8.35s-16.98,2.68-23.29,8.03c-6.32,5.36-10.23,12.96-11.73,22.81h68.75Z"/>
  </g>
  <g>
    <path class="cls-3" d="M1324.75,569.98l-256.58,306.18-177.74-206.51-245.54,315.75c-22.16-49.84-34.45-104.89-34.45-162.89,0-222.06,179.92-401.9,401.82-401.9,126.35,0,238.93,58.24,312.48,149.36Z"/>
    <g>
      <path class="cls-4" d="M1414.16,822.51c0,221.82-179.92,401.66-401.9,401.66-139.25,0-262.02-70.83-334.02-178.52l214.67-276.02,175.87,204.41,292.97-349.65c33.43,58.39,52.4,125.96,52.4,198.11Z"/>
      <g class="cls-7">
        <path class="cls-5" d="M577,1065l300.86-386.85,104.73,633.53s-268.13-20.52-405.59-246.67Z"/>
        <path class="cls-5" d="M1169.08,1297.5l192.71-673.13,313.34,516.72s-368.59,382.57-506.05,156.41Z"/>
        <polygon class="cls-2" points="1068.8 973.81 1068.8 1242.27 1203.97 1197.67 1361.79 624.11 1068.8 973.81"/>
      </g>
    </g>
  </g>
</svg>